<svg xmlns="http://www.w3.org/2000/svg" xmlns:xlink="http://www.w3.org/1999/xlink" width="16" height="16" viewBox="0 0 16 16" xml:space="preserve">
	<defs>
		<style>
			g { display: none; }
			g:target { display: inline; }
		</style>
	</defs>

	<g id="easyblock">
		<path fill="#3a54af" style="fill-opacity:0.8;stroke:none"
			d="m 1,3 h 6 l 10e-5,1 h -4 v 3 h 3 v 1 h -3 v 3 h 4 l -10e-5,1 h -6 z"/>
		<path fill="#c51814" style="fill-opacity:0.8;stroke:none"
			d="m 14,8 v -1 h -1 v -1 h -2 v 3 h 2 v -1 z m -3,2 v 3 h 2 l 1,-1 v -1 h -1 v -1 z m 4,3 h -1 v 1 l -5,10e-4 v -9 l 4,-2e-4 1,1 1,1 v 1 l -1,1 -0.6,0.5 0.6,0.5 h 1 z"/>
	</g>

	<g id="checkbox">
		<path d="m 4,7.5 c -0.1,-0.37 0.08,-0.8 0.2,-1 0.14,-0.13 0.55,-0.22 0.78,-0.07 0.21,0.14 2.45,3 3,3 0.55,0 5.3,-7.82 5.52,-8 0.22,-0.18 0.7,0 0.84,0.15 0.17,0.15 0.261,0.5964 0.16,0.85 -0.04,0.1 -5.5,9.289 -6,9.57 -0.5,0.281 -0.5,0.281 -1,0 -0.5,-0.281 -3.5,-4.115 -3.5,-4.495 z" fill="#444"/>
	</g>

	<g id="expander_off">
		<path fill="#555" d="m 3,3 10,5 -10,5 2,-5 z"/>
	</g>

	<g id="expander_on">
		<path fill="#555" d="m 8,3 5,10 -11,-2 4.6,-2.8 z"/>
	</g>
</svg>
